<?xml version="1.0" encoding="iso-8859-1"?>
<!-- Uploaded to: SVG Repo, www.svgrepo.com, Generator: SVG Repo Mixer Tools -->
<svg fill="#000000" height="800px" width="800px" version="1.1" id="Layer_1" xmlns="http://www.w3.org/2000/svg" xmlns:xlink="http://www.w3.org/1999/xlink" 
	 viewBox="0 0 512 512" xml:space="preserve">
<g>
	<g>
		<circle cx="227.308" cy="297.855" r="7.825"/>
	</g>
</g>
<g>
	<g>
		<circle cx="227.308" cy="339.586" r="7.825"/>
	</g>
</g>
<g>
	<g>
		<circle cx="227.308" cy="381.014" r="7.825"/>
	</g>
</g>
<g>
	<g>
		<path d="M107.333,355.235v42.774h99.111v-42.774H107.333z M190.795,382.36h-67.813v-11.476h67.813V382.36z"/>
	</g>
</g>
<g>
	<g>
		<path d="M305.555,355.235v42.774h99.111v-42.774H305.555z M389.017,382.36h-67.813v-11.476h67.813V382.36z"/>
	</g>
</g>
<g>
	<g>
		<path d="M433.356,201.873c-18.695,0-33.906-15.21-33.906-33.906V23.637L331.084,0H180.916L112.55,23.637v144.33
			c0,9.051-3.528,17.565-9.935,23.971c-6.408,6.408-14.92,9.935-23.971,9.935H70.82v275.887l145.934,34.238l39.247-39.738
			L295.246,512l145.934-34.238V201.873H433.356z M318.677,15.649l-5.761,16.171H199.084l-5.76-16.171H318.677z M248.175,457.915
			l-36.39,36.844l-125.317-29.4V216.911c10.26-1.619,19.721-6.416,27.212-13.907c9.363-9.363,14.519-21.805,14.519-35.037V34.786
			l49.262-17.034l70.714,198.514V457.915z M255.999,191.596L204.658,47.469h102.683L255.999,191.596z M425.531,465.358
			L300.215,494.76l-36.39-36.844V216.266l70.714-198.514l49.262,17.034v133.181c0,24.664,18.11,45.177,41.731,48.938V465.358z"/>
	</g>
</g>
</svg>