<?xml version="1.0" encoding="iso-8859-1"?>
<!-- Uploaded to: SVG Repo, www.svgrepo.com, Generator: SVG Repo Mixer Tools -->
<svg fill="#000000" height="800px" width="800px" version="1.1" id="Layer_1" xmlns="http://www.w3.org/2000/svg" xmlns:xlink="http://www.w3.org/1999/xlink" 
	 viewBox="0 0 512.001 512.001" xml:space="preserve">
<g>
	<g>
		<path d="M373.336,225.936c-17.812-18.222-29.386-41.372-33.469-66.945c-4.082-25.552-2.107-48.805,5.87-69.112
			c26.65-67.834,27.419-87.677,27.419-89.716h-17.272L355.887,0c-0.022,0.6-0.609,12.376-13.513,49.43
			c-6.309-1.758-15.721-3.654-26.674-3.512c-16.513,0.214-39.525,5.181-59.704,26.343c-20.178-21.163-43.19-26.129-59.704-26.343
			c-10.97-0.136-20.373,1.756-26.674,3.511C156.714,12.376,156.127,0.6,156.105,0l0.002,0.162h-17.272
			c0,2.039,0.769,21.881,27.419,89.717c7.978,20.305,9.952,43.559,5.87,69.112c-4.084,25.573-15.658,48.723-33.469,66.945
			c-17.902,18.316-33.01,40.421-44.902,65.699c-2.03,4.316-0.177,9.461,4.138,11.491c1.188,0.558,2.439,0.823,3.671,0.823
			c3.241,0,6.349-1.834,7.821-4.963c11.069-23.53,25.073-44.046,41.624-60.978c10.255-10.491,18.691-22.41,25.135-35.383h107.897
			c4.771,0,8.636-3.867,8.636-8.636s-3.866-8.636-8.636-8.636H183.307c2.594-7.629,4.578-15.522,5.875-23.639
			c4.575-28.642,2.271-54.937-6.851-78.153c-2.518-6.41-4.791-12.358-6.849-17.886c14.619-3.891,48.04-7.975,73.688,25.115
			c1.635,2.111,4.156,3.345,6.826,3.345c2.67,0,5.191-1.236,6.826-3.345c25.647-33.09,59.069-29.005,73.688-25.115
			c-2.058,5.527-4.331,11.476-6.849,17.886c-9.121,23.219-11.426,49.513-6.85,78.152c1.297,8.117,3.281,16.01,5.875,23.64h-14.167
			c-4.771,0-8.636,3.867-8.636,8.636s3.866,8.636,8.636,8.636h21.331c6.445,12.973,14.88,24.891,25.135,35.383
			c40.3,41.229,64.569,102.193,67.679,168.982c-18.465,10.24-41.07,9.403-58.81-2.501c-2.931-2.006-6.794-1.999-9.724-0.02
			c-19.134,12.83-43.858,12.826-62.902,0.047c-2.943-2.037-6.829-2.032-9.765-0.045c-19.139,12.829-43.859,12.822-63.023-0.04
			c-2.949-1.967-6.776-1.915-9.66,0.053c-19.134,12.813-43.844,12.8-62.993-0.053c-2.91-1.94-6.702-1.934-9.603,0.015
			c-17.773,11.933-40.368,12.778-58.849,2.541c1.351-29.066,6.713-57.094,16.021-83.504c1.584-4.498-0.776-9.43-5.275-11.015
			c-4.497-1.583-9.43,0.777-11.015,5.275c-11.515,32.676-17.354,67.64-17.354,103.917v81.702c0,4.77,3.867,8.636,8.636,8.636
			h363.309c4.771,0,8.636-3.867,8.636-8.636v-81.702C446.286,344.705,419.698,273.365,373.336,225.936z M82.978,425.942
			c20.713,8.429,44.233,7.039,64.015-4.179c22.592,12.81,50.061,12.809,72.653,0c22.597,12.814,50.069,12.814,72.664,0
			c11.298,6.406,23.817,9.61,36.334,9.61s25.036-3.203,36.333-9.61c19.773,11.216,43.286,12.61,64.038,4.168v21.711
			c-18.529,10.445-41.309,9.669-59.161-2.311c-2.931-2.006-6.794-1.999-9.724-0.02c-19.134,12.83-43.858,12.826-62.902,0.047
			c-2.926-2.025-6.798-2.039-9.743-0.061c-19.137,12.84-43.872,12.844-63.046-0.024c-2.909-1.939-6.703-1.931-9.607,0.017
			c-19.142,12.848-43.878,12.848-63.046-0.017c-2.91-1.94-6.701-1.935-9.603,0.015c-17.885,12.007-40.656,12.792-59.203,2.35
			V425.942z M429.016,494.727H82.978v-27.942c20.713,8.427,44.233,7.037,64.016-4.179c22.598,12.814,50.073,12.812,72.654,0.001
			c22.598,12.815,50.067,12.813,72.663,0c11.3,6.408,23.815,9.612,36.334,9.61c12.517,0,25.036-3.203,36.333-9.61
			c19.773,11.216,43.286,12.61,64.038,4.168V494.727z"/>
	</g>
</g>
<g>
	<g>
		<path d="M371.206,376.143c-3.223-37.814-10.627-73.981-21.414-104.591c-1.584-4.498-6.515-6.861-11.014-5.275
			c-4.499,1.586-6.862,6.516-5.276,11.015c10.306,29.25,17.393,63.939,20.494,100.317c0.383,4.503,4.157,7.904,8.595,7.904
			c0.246,0,0.494-0.01,0.744-0.031C368.087,385.076,371.611,380.895,371.206,376.143z"/>
	</g>
</g>
<g>
	<g>
		<path d="M340.484,248.298c-3.331-7.345-6.908-14.304-10.632-20.683c-2.405-4.12-7.693-5.509-11.813-3.104
			c-4.119,2.404-5.509,7.693-3.104,11.812c3.428,5.871,6.732,12.301,9.82,19.11c1.445,3.187,4.584,5.071,7.87,5.071
			c1.192,0,2.405-0.249,3.563-0.774C340.53,257.76,342.454,252.642,340.484,248.298z"/>
	</g>
</g>
<g>
	<g>
		<path d="M193.947,224.51c-4.118-2.406-9.406-1.014-11.812,3.104c-15.323,26.248-27.333,60.748-34.732,99.77
			c-0.889,4.687,2.19,9.205,6.876,10.094c0.545,0.104,1.086,0.153,1.619,0.153c4.067,0,7.69-2.887,8.475-7.029
			c7.038-37.11,18.338-69.711,32.679-94.281C199.455,232.203,198.066,226.914,193.947,224.51z"/>
	</g>
</g>
<g>
	<g>
		<path d="M152.88,346.287c-4.73-0.617-9.065,2.715-9.683,7.443c-0.961,7.351-1.774,14.892-2.416,22.411
			c-0.405,4.752,3.119,8.933,7.872,9.339c0.25,0.021,0.497,0.031,0.743,0.031c4.438,0,8.211-3.4,8.596-7.904
			c0.618-7.263,1.403-14.542,2.331-21.637C160.942,351.242,157.609,346.905,152.88,346.287z"/>
	</g>
</g>
<g>
	<g>
		<path d="M255.745,226.82c-4.769,0-8.636,3.867-8.636,8.636v141.419c0,4.769,3.867,8.636,8.636,8.636
			c4.769,0,8.636-3.867,8.636-8.636V235.456C264.381,230.686,260.516,226.82,255.745,226.82z"/>
	</g>
</g>
</svg>